<mxfile host="app.diagrams.net" modified="2023-07-02T18:03:43.356Z" agent="Mozilla/5.0 (Windows NT 10.0; Win64; x64) AppleWebKit/537.36 (KHTML, like Gecko) Chrome/114.0.0.0 Safari/537.36 Edg/114.0.1823.58" etag="25ZxAeasnMRZ3JcwPD-F" version="21.5.2" type="device">
  <diagram name="Page-1" id="1pQEq53tWK9oDeuQSf0f">
    <mxGraphModel dx="1114" dy="616" grid="1" gridSize="10" guides="1" tooltips="1" connect="1" arrows="1" fold="1" page="1" pageScale="1" pageWidth="850" pageHeight="1100" math="0" shadow="0">
      <root>
        <mxCell id="0" />
        <mxCell id="1" parent="0" />
        <mxCell id="ra8v7G1BkYGpRt4x0djX-1" value="" style="rounded=0;whiteSpace=wrap;html=1;" vertex="1" parent="1">
          <mxGeometry y="570" width="850" height="60" as="geometry" />
        </mxCell>
        <mxCell id="ra8v7G1BkYGpRt4x0djX-2" value="&amp;lt;H4&amp;gt;Created by:J. Brashear&amp;lt;/H4&amp;gt;&lt;br&gt;&amp;lt;H4&amp;gt;email address&amp;lt;/H4&amp;gt;" style="rounded=0;whiteSpace=wrap;html=1;" vertex="1" parent="1">
          <mxGeometry x="10" y="580" width="210" height="40" as="geometry" />
        </mxCell>
        <mxCell id="ra8v7G1BkYGpRt4x0djX-3" value="&amp;lt;Business Name&amp;gt;&amp;lt;Business Address&amp;gt;&amp;lt;Business Telephone&amp;gt;" style="rounded=0;whiteSpace=wrap;html=1;" vertex="1" parent="1">
          <mxGeometry x="470" y="580" width="360" height="40" as="geometry" />
        </mxCell>
      </root>
    </mxGraphModel>
  </diagram>
</mxfile>
